<svg xmlns="http://www.w3.org/2000/svg" viewBox="0 0 32 32" fill="none">
  <path d="M20 6C18.2 4.2 15 5 15 7.5V11C11.5 11 8.5 12.8 7.2 15.8C5.8 19 6.2 23 8.5 25.5C9.8 24.2 10 22.2 10.5 20.5C11 18.8 12.5 17 14.5 16.5C14.8 16.4 15 16.6 15 17V20.5C15 23 18.2 23.8 20 22L27 15L20 6Z" fill="#dc2626" />
  <path d="M18 11.5H23.5" stroke="white" stroke-width="1.5" stroke-linecap="round" />
  <path d="M18 14.5H24.5" stroke="white" stroke-width="1.5" stroke-linecap="round" />
  <path d="M18 17.5H22.5" stroke="white" stroke-width="1.5" stroke-linecap="round" />
  <path d="M5 9C6.10457 9 7 8.10457 7 7C7 5.89543 6.10457 5 5 5C3.89543 5 3 5.89543 3 7C3 8.10457 3.89543 9 5 9Z" fill="#dc2626" />
  <path d="M3.5 13.5C4.32843 13.5 5 12.8284 5 12C5 11.1716 4.32843 10.5 3.5 10.5C2.67157 10.5 2 11.1716 2 12C2 12.8284 2.67157 13.5 3.5 13.5Z" fill="#dc2626" />
  <path d="M7.5 28.5C8.32843 28.5 9 27.8284 9 27C9 26.1716 8.32843 25.5 7.5 25.5C6.67157 25.5 6 26.1716 6 27C6 27.8284 6.67157 28.5 7.5 28.5Z" fill="#dc2626" />
</svg>